<svg width="1819" height="700" viewBox="0 0 1819 700" fill="none" xmlns="http://www.w3.org/2000/svg">
<path d="M695.779 268.944C695.779 224.718 728.99 191.328 771.956 191.328C793.66 191.328 813.801 199.949 827.98 215.644L809.818 234.22C800.302 223.17 786.564 216.978 771.515 216.978C743.61 216.978 723.469 238.209 723.469 267.837C723.469 297.464 744.064 319.136 773.065 319.136C788.782 319.136 802.52 312.73 811.821 301.227L829.757 319.362C815.804 335.724 795.651 344.786 772.183 344.786C728.12 344.786 695.791 312.73 695.791 268.944H695.779Z" fill="#00163D"/>
<path d="M837.198 289.33C837.198 258.429 861.728 233.934 892.899 233.934C924.071 233.934 948.375 258.429 948.375 289.33C948.375 320.232 923.845 344.726 892.899 344.726C861.954 344.726 837.198 320.232 837.198 289.33ZM922.7 289.33C922.7 270.79 910.322 257.512 892.899 257.512C875.477 257.512 862.872 270.79 862.872 289.33C862.872 307.871 875.25 321.149 892.899 321.149C910.548 321.149 922.7 307.871 922.7 289.33Z" fill="#00163D"/>
<path d="M965.451 237.293H989.408V249.141C997.172 239.567 1007.89 234.566 1019.98 234.566C1043.49 234.566 1060.14 253.023 1060.14 277.399V342.095H1035.03V283.091C1035.03 267.372 1026.36 257.346 1012.9 257.346C999.437 257.346 990.541 267.825 990.541 283.543V342.095H965.439V237.293H965.451Z" fill="#00163D"/>
<path d="M1144.39 315.159C1139.33 319.755 1134.71 321.804 1129.43 321.804C1120.69 321.804 1116.54 315.838 1116.54 305.716V258.167H1145.32V236.34H1116.54V207.154H1091.24V236.34H1075.13V258.167H1091.24V308.252C1091.24 330.758 1104.13 344.786 1126.21 344.786C1135.33 344.786 1143.78 342.381 1150.23 337.963L1144.37 315.159H1144.39Z" fill="#00163D"/>
<path d="M1164.69 205.796C1164.69 197.27 1171.44 190.53 1179.98 190.53C1188.52 190.53 1195.27 197.27 1195.27 205.796C1195.27 214.322 1188.52 221.062 1179.98 221.062C1171.44 221.062 1164.69 214.322 1164.69 205.796ZM1167.62 238.805H1192.35V342.095H1167.62V238.805Z" fill="#00163D"/>
<path d="M1217.14 237.555H1241.04V249.367C1248.78 239.817 1259.47 234.828 1271.53 234.828C1294.97 234.828 1311.59 253.237 1311.59 277.553V342.095H1286.56V283.234C1286.56 267.551 1277.91 257.548 1264.48 257.548C1251.05 257.548 1242.18 268.003 1242.18 283.686V342.095H1217.15V237.555H1217.14Z" fill="#00163D"/>
<path d="M1332.01 300.988V234.816H1357.68V295.154C1357.68 311.229 1366.55 321.482 1380.31 321.482C1394.07 321.482 1403.17 310.765 1403.17 294.689V234.816H1428.83V341.988H1404.34V329.865C1396.41 339.654 1385.44 344.774 1373.07 344.774C1349.04 344.774 1332 325.9 1332 300.976L1332.01 300.988Z" fill="#00163D"/>
<path d="M1449.7 300.988V234.816H1475.36V295.154C1475.36 311.229 1484.24 321.482 1498 321.482C1511.76 321.482 1520.86 310.765 1520.86 294.689V234.816H1546.52V341.988H1522.03V329.865C1514.1 339.654 1503.13 344.774 1490.76 344.774C1466.73 344.774 1449.69 325.9 1449.69 300.976L1449.7 300.988Z" fill="#00163D"/>
<path d="M1568.05 237.555H1591.94V249.367C1599.68 239.817 1610.38 234.828 1622.44 234.828C1636.54 234.828 1648.16 241.651 1655.21 252.332C1664.08 240.508 1675.47 234.828 1689.35 234.828C1714.38 234.828 1731.91 253.237 1731.91 277.553V342.095H1706.88V283.234C1706.88 267.551 1698.23 257.548 1684.8 257.548C1671.38 257.548 1662.5 268.003 1662.5 283.686V342.095H1637.47V283.234C1637.47 267.551 1628.83 257.548 1615.4 257.548C1601.97 257.548 1593.1 268.003 1593.1 283.686V342.095H1568.07V237.555H1568.05Z" fill="#00163D"/>
<path d="M943.95 428.071C929.306 423.284 923.571 418.639 923.571 411.53C923.571 404.421 929.95 399.491 940.051 399.491C948.649 399.491 955.911 402.623 962.291 409.756L973.751 401.682C965.01 392.394 953.55 387.607 940.23 387.607C921.209 387.607 907.889 397.872 907.889 412.495C907.889 424.51 916.833 432.989 937.535 439.824C952.691 444.742 958.761 449.814 958.761 457.031C958.761 465.366 950.819 470.427 939.037 470.427C929.593 470.427 921.579 467.164 914.841 459.865L905.85 470.63C914.269 478.227 925.956 482.323 938.894 482.323C959.596 482.323 974.419 471.535 974.419 456.078C974.419 443.789 964.998 435.025 943.938 428.071H943.95Z" fill="#00163D"/>
<path d="M987.178 447.695C987.178 427.951 1001.07 413.221 1020.27 413.221C1038.32 413.221 1051.93 426.379 1051.93 445.408C1051.93 447.409 1051.79 449.124 1051.5 451.267H1000.08C1001.51 463.139 1009.82 470.582 1022.29 470.582C1030.45 470.582 1037.32 467.438 1042.63 460.996L1050.37 468.296C1043.49 477.31 1033.04 482.168 1021.58 482.168C1001.38 482.168 987.202 467.581 987.202 447.695H987.178ZM1039.03 441.122C1037.31 430.25 1030.14 424.248 1019.83 424.248C1009.51 424.248 1002.22 430.678 1000.34 441.122H1039.02H1039.03Z" fill="#00163D"/>
<path d="M1063.69 462.556C1063.69 450.112 1075.55 442.86 1090.31 442.86C1097.19 442.86 1102.74 443.313 1108.78 444.706V441.419C1108.78 431.262 1102.2 424.391 1092.6 424.391C1086.29 424.391 1079.59 425.832 1072.16 432.691L1065.36 424.415C1071.54 416.829 1083.85 413.233 1093.31 413.233C1109.64 413.233 1121.1 424.82 1121.1 440.836V480.597H1108.78V471.868C1103.34 478.739 1096.03 482.168 1087.72 482.168C1074.25 482.168 1063.68 474.571 1063.68 462.556H1063.69ZM1108.65 457.185C1102.77 453.184 1097.62 451.47 1091.02 451.47C1082.42 451.47 1076.99 455.899 1076.99 462.627C1076.99 469.355 1082.14 473.499 1090.31 473.499C1100.48 473.499 1107.92 466.914 1108.65 457.197V457.185Z" fill="#00163D"/>
<path d="M1139.58 414.805H1151.61V424.391C1156.19 416.948 1162.5 413.233 1170.23 413.233C1172.91 413.233 1174.85 413.888 1175.71 414.031V427.165C1174 426.594 1169.65 426.153 1167.65 426.249C1158.21 426.677 1151.9 432.691 1151.9 442.836V480.597H1139.58V414.805Z" fill="#00163D"/>
<path d="M1182.25 447.838C1182.25 428.666 1197.43 413.221 1216.48 413.221C1227.52 413.221 1237.54 418.365 1243.98 426.808L1235.24 434.536C1230.52 428.237 1223.93 424.808 1216.47 424.808C1204.01 424.808 1194.98 434.536 1194.98 447.552C1194.98 460.567 1204.15 470.582 1216.9 470.582C1224.64 470.582 1231.22 467.152 1236.1 460.853L1244.41 468.296C1238.1 476.738 1227.94 482.168 1216.48 482.168C1197.29 482.168 1182.25 467.152 1182.25 447.838Z" fill="#00163D"/>
<path d="M1254.66 387.143H1267.5V422.95C1272.88 416.091 1279.75 412.507 1287.96 412.507C1303.05 412.507 1313.96 424.439 1313.96 440.55V481.228H1301.12V442.932C1301.12 431.595 1294.55 424.141 1284.39 424.141C1274.23 424.141 1267.5 431.893 1267.5 443.086V481.228H1254.66V387.131V387.143Z" fill="#00163D"/>
<path d="M1358.88 435.787C1358.88 408.53 1380.05 387.107 1406.23 387.107C1420.02 387.107 1432.7 392.954 1441.6 402.956L1432.27 411.721C1425.58 404.076 1416.25 399.765 1406.08 399.765C1386.86 399.765 1372.65 414.781 1372.65 435.227C1372.65 455.673 1387 470.546 1406.64 470.546C1416.94 470.546 1425.58 466.509 1431.71 459.841V442.872H1406.64V430.774H1444.66V467.486C1432.99 479.001 1421.12 483.204 1405.66 483.204C1379.2 483.204 1358.87 462.627 1358.87 435.775L1358.88 435.787Z" fill="#00163D"/>
<path d="M1460.67 416.317H1473V426.141C1477.7 418.52 1484.16 414.71 1492.08 414.71C1493.85 414.71 1495.76 414.995 1496.64 415.15V427.308C1482.78 424.82 1473.3 434.644 1473.3 445.051V481.442H1460.67V416.317Z" fill="#00163D"/>
<path d="M1507.08 447.695C1507.08 428.666 1522.27 413.221 1541.32 413.221C1560.38 413.221 1575.41 428.523 1575.41 447.695C1575.41 466.867 1560.23 482.168 1541.32 482.168C1522.41 482.168 1507.08 466.867 1507.08 447.695ZM1562.67 447.695C1562.67 434.394 1553.78 424.808 1541.32 424.808C1528.86 424.808 1519.83 434.394 1519.83 447.695C1519.83 460.996 1528.86 470.582 1541.32 470.582C1553.78 470.582 1562.67 460.996 1562.67 447.695Z" fill="#00163D"/>
<path d="M1589.37 455.28V414.805H1601.69V452.994C1601.69 463.866 1607.98 471.011 1617.72 471.011C1627.47 471.011 1633.91 463.58 1633.91 452.851V414.805H1646.23V480.597H1634.19V471.725C1629.04 478.596 1622.3 482.168 1614.28 482.168C1599.81 482.168 1589.36 470.725 1589.36 455.28H1589.37Z" fill="#00163D"/>
<path d="M1666.35 414.805H1678.39V424.677C1683.54 417.663 1691.56 413.233 1701.16 413.233C1718.78 413.233 1732.82 428.392 1732.82 447.707C1732.82 467.021 1718.79 482.18 1700.88 482.18C1691.85 482.18 1683.98 478.322 1678.67 471.88V507.199H1666.35V414.805ZM1720.49 447.695C1720.49 434.394 1711.04 424.808 1698.86 424.808C1686.69 424.808 1677.52 434.536 1677.52 447.695C1677.52 460.853 1686.54 470.582 1698.86 470.582C1711.18 470.582 1720.49 460.996 1720.49 447.695Z" fill="#00163D"/>
<path d="M601.417 446.98C601.441 467.557 596.134 488.48 585.139 507.521C573.93 526.919 558.057 542.149 539.788 552.437C521.519 562.75 500.865 568.168 479.865 568.168C475.214 568.168 470.516 567.918 465.841 567.37C467.952 557.784 469.157 547.924 469.383 537.969L469.407 537.564C469.431 536.54 469.431 535.528 469.431 534.504C469.431 532.968 469.407 531.42 469.359 529.884C472.877 530.312 476.371 530.539 479.865 530.539C494.342 530.539 508.664 526.776 521.245 519.679C533.862 512.581 544.713 502.186 552.5 488.718C560.144 475.5 563.734 461.198 563.734 446.992C563.734 432.786 559.965 418.234 552.858 405.671C548.565 398.074 543.056 391.096 536.378 385.071C532.025 381.105 527.207 377.545 521.853 374.485C508.616 366.828 494.294 363.267 480.068 363.243C465.591 363.243 451.269 367.006 438.688 374.103C436.828 375.151 434.991 376.283 433.215 377.521H433.191C422.935 384.392 414.099 393.633 407.457 405.1C406.407 406.934 405.417 408.791 404.523 410.649C399.073 421.89 396.438 433.739 396.235 445.528C385.145 447.719 373.041 438.311 362.106 433.477C360.222 432.643 362.619 424.879 360.651 424.153C362.69 413.614 366.148 403.23 371.109 393.24C372.266 390.906 373.494 388.572 374.83 386.285C382.319 373.318 391.894 362.195 402.901 353.193C408.327 348.704 414.135 344.762 420.192 341.345C425.463 338.379 430.925 335.819 436.53 333.688C450.375 328.365 465.15 325.614 480.104 325.614C500.305 325.614 520.804 330.687 539.574 341.249C539.955 341.452 540.349 341.678 540.73 341.904C551.94 348.358 561.742 356.36 570.006 365.494C576.112 372.198 581.335 379.498 585.711 387.202C596.038 405.445 601.464 426.07 601.464 447.016L601.417 446.98Z" fill="url(#paint0_linear_1_55)"/>
<path d="M436.756 534.492C436.756 535.397 436.756 536.302 436.732 537.207V537.231C436.554 544.757 435.683 552.104 434.145 559.213C432.439 567.263 429.899 575.051 426.632 582.422C420.479 596.271 411.761 608.691 401.077 619.075C379.767 639.878 350.467 652.691 318.46 652.691C317.554 652.691 316.648 652.691 315.718 652.667C299.69 652.286 284.355 648.726 270.486 642.581C256.593 636.437 244.156 627.732 233.745 617.062C226.554 609.715 220.329 601.403 215.226 592.377C224.503 589.186 233.471 585.101 242.033 580.159C244.442 578.778 246.803 577.325 249.116 575.765C249.748 576.849 250.428 577.897 251.096 578.921C259.563 591.662 271.595 601.927 285.75 608.179C295.171 612.347 305.546 614.776 316.552 615.026C317.184 615.05 317.804 615.05 318.436 615.05C334.869 615.05 350.073 610.156 362.857 601.725C375.617 593.27 385.896 581.255 392.157 567.12C394.244 562.405 395.901 557.487 397.058 552.342C398.143 547.496 398.823 542.459 398.99 537.291C398.99 536.993 399.014 536.659 399.014 536.362C399.037 535.731 399.037 535.088 399.037 534.48C399.037 518.071 394.136 502.888 385.693 490.123C379.063 480.132 370.239 471.701 359.935 465.509C357.073 463.783 354.104 462.223 351.039 460.865C341.619 456.697 331.244 454.268 320.213 454.018C319.784 453.994 319.331 453.994 318.878 453.994H318.353C306.643 453.994 295.588 456.483 285.559 460.948C267.719 459.877 263.14 451.66 263.14 446.921C263.14 438.514 270.009 429.964 283.723 421.509C294.002 418.401 304.83 416.615 316.016 416.413C316.791 416.365 317.578 416.365 318.353 416.365C319.259 416.365 320.166 416.389 321.096 416.389C334.964 416.71 348.285 419.425 360.591 424.117C362.547 424.843 364.455 425.653 366.339 426.475C377.274 431.321 387.315 437.74 396.164 445.492C398.549 447.552 400.838 449.731 403.044 451.994C420.18 469.51 431.915 492.409 435.504 517.785C436.303 523.251 436.709 528.824 436.709 534.492H436.756Z" fill="url(#paint1_linear_1_55)"/>
<path d="M286.454 446.778C286.454 451.517 286.179 456.257 285.595 460.96C283.735 476.989 278.69 492.528 270.701 506.628C262.735 520.727 251.8 533.397 238.289 543.59C234.318 546.603 230.12 549.389 225.72 551.926C218.481 556.093 210.968 559.451 203.301 561.988C190.791 566.179 177.876 568.216 165.081 568.18C144.069 568.18 123.415 562.762 105.158 552.449C86.9126 542.161 71.0165 526.931 59.807 507.533C48.8003 488.492 43.5294 467.557 43.5294 446.992C43.5294 428.023 47.9775 409.327 56.4681 392.442C65.865 399.944 76.1681 406.315 87.1988 411.435C87.7235 411.685 88.2839 411.935 88.8086 412.161C83.8359 423.081 81.2243 434.965 81.2243 446.992C81.2243 461.199 84.8138 475.5 92.4577 488.718C100.245 502.198 111.132 512.581 123.713 519.679C136.306 526.776 150.628 530.539 165.093 530.539C177.125 530.539 189.241 527.955 200.725 522.537C202.812 521.56 204.851 520.477 206.878 519.321C220.341 511.546 230.752 500.709 237.883 488.111C244.99 475.536 248.759 461.234 248.759 446.79C248.759 444.277 248.627 441.777 248.401 439.264C247.352 427.594 243.798 415.984 237.525 405.088C236.798 403.838 236.047 402.599 235.26 401.42C228.951 391.632 220.914 383.63 211.767 377.509C198.161 364.553 210.289 350.871 211.767 349.942C221.236 344.024 226.65 344.226 242.057 353.145C250.369 359.969 257.941 368.019 264.345 377.188C266.408 380.093 268.34 383.13 270.152 386.274C276.663 397.515 281.159 409.435 283.723 421.521H283.747C285.535 429.904 286.43 438.383 286.43 446.79L286.454 446.778Z" fill="url(#paint2_linear_1_55)"/>
<path d="M272.203 286.794C270.951 297.535 268.184 308.252 263.856 318.636C263.176 320.267 262.472 321.875 261.721 323.483C256.546 334.545 249.892 344.488 242.069 353.145C234.461 361.648 225.708 368.923 216.239 374.854C214.76 375.782 213.27 376.664 211.767 377.509C193.677 387.726 173.095 393.216 152.071 393.216C137.522 393.216 122.771 390.584 108.58 385.059C106.04 384.106 103.524 383.022 101.02 381.867C91.4679 377.402 82.7507 371.877 74.9876 365.458C64.8871 357.099 56.3488 347.263 49.5873 336.474C37.6504 317.326 31.199 295.13 31.199 272.362C31.1751 255.274 34.8719 237.84 42.5516 221.407C52.7832 199.473 68.8581 181.968 88.0096 170.048C107.185 158.104 129.413 151.662 152.214 151.662C156.483 151.662 160.752 151.888 165.033 152.365C164.83 154.02 164.652 155.699 164.509 157.354C164.079 161.975 163.853 166.714 163.853 171.453C163.853 177.776 164.234 184.052 164.986 190.292C160.74 189.613 156.471 189.291 152.226 189.291C136.568 189.291 121.197 193.733 108.008 201.962C94.795 210.214 83.8121 222.134 76.7286 237.316C71.3981 248.736 68.9177 260.62 68.9177 272.374C68.8939 288.009 73.3658 303.358 81.6059 316.528C87.64 326.186 95.6536 334.64 105.456 341.214C109.045 343.667 112.897 345.858 116.987 347.763C128.423 353.086 140.325 355.563 152.118 355.563C167.752 355.563 183.147 351.121 196.336 342.893C200.653 340.213 204.732 337.117 208.5 333.664C216.287 326.543 222.822 317.779 227.592 307.574C228.677 305.24 229.655 302.882 230.501 300.5C233.84 291.295 235.426 281.852 235.426 272.493C235.426 268.849 235.176 265.241 234.699 261.656C238.944 257.608 249.629 254.464 255.83 258.655C262.162 262.919 277.581 269.706 272.239 286.794H272.203Z" fill="url(#paint3_linear_1_55)"/>
<path d="M613.771 272.362C613.771 295.118 607.308 317.35 595.359 336.474C594.333 338.141 593.26 339.725 592.151 341.345C583.493 332.152 573.643 324.018 562.947 317.219C563.114 317.005 563.245 316.743 563.424 316.54C571.652 303.37 576.1 288.009 576.1 272.362C576.1 260.644 573.572 248.748 568.265 237.328C561.194 222.146 550.187 210.214 536.998 201.962C523.809 193.745 508.426 189.303 492.792 189.303C488.547 189.303 484.265 189.601 479.984 190.292C472.448 191.494 464.947 193.757 457.673 197.139C452.7 199.449 448.121 202.14 443.84 205.26C435.063 211.595 427.824 219.454 422.291 228.35C415.947 238.4 411.881 249.82 410.295 261.585V261.633C409.818 265.229 409.567 268.861 409.567 272.493C409.567 281.864 411.153 291.307 414.492 300.512C415.22 302.525 415.995 304.489 416.889 306.502C417.056 306.847 417.235 307.228 417.402 307.574C422.16 317.791 428.707 326.519 436.506 333.664C441.3 343.976 432.225 350.347 426.906 353.3C420.872 356.718 410.974 357.837 402.877 353.169C395.687 345.215 389.474 336.105 384.501 326.09C384.072 325.233 383.642 324.376 383.213 323.483C382.486 321.899 381.758 320.279 381.114 318.648C376.785 308.252 374.007 297.559 372.719 286.83C372.767 286.746 372.802 286.615 372.85 286.532C371.228 269.516 373.494 252.189 375.975 241.663V241.615H375.927C379.015 229.898 383.845 218.692 390.273 208.428C395.675 199.782 402.174 191.792 409.758 184.647C414.85 179.813 420.467 175.407 426.501 171.477C431.295 168.31 436.351 165.487 441.705 163.011C443.756 162.07 445.819 161.177 447.918 160.319C458.412 156.128 469.204 153.52 479.996 152.365C484.242 151.888 488.523 151.686 492.756 151.686C515.545 151.686 537.773 158.14 556.913 170.072C576.052 181.956 592.163 199.497 602.395 221.443C610.062 237.864 613.747 255.321 613.747 272.385L613.771 272.362Z" fill="url(#paint4_linear_1_55)"/>
<path d="M273.145 98.3383C287.241 88.8476 304.15 83.3223 322.491 83.2866C334.738 83.2866 346.305 85.7634 356.835 90.217C372.636 96.8855 386.17 108.091 395.687 122.166C400.48 129.263 404.296 137.051 406.86 145.387C413.502 140.85 420.562 136.873 427.932 133.455C432.177 131.49 436.41 129.692 440.775 128.156C440.048 126.227 439.32 124.345 438.545 122.511C428.945 99.8863 413.014 80.7264 392.884 67.1632C372.838 53.6 348.511 45.6454 322.467 45.6454C305.116 45.6454 288.505 49.194 273.431 55.5648C250.774 65.1031 231.587 81.0122 218.004 101.113C206.401 118.26 198.9 138.54 197.016 160.307C196.67 163.987 196.456 167.702 196.456 171.465C196.456 183.099 198.077 194.471 201.082 205.212V205.26C202.537 210.476 204.29 215.525 206.389 220.443C212.984 236.054 222.667 250.034 234.651 261.668C240.006 266.848 245.789 271.552 252.002 275.743C258.346 280.018 265.108 283.746 272.179 286.818C287.598 293.534 304.639 297.249 322.467 297.249C328.763 297.249 334.976 296.773 340.975 295.88C351.636 294.344 361.879 291.426 371.515 287.33C371.896 287.163 372.325 286.985 372.719 286.818C372.755 286.794 372.803 286.782 372.838 286.758C371.169 269.623 373.494 252.178 375.963 241.627H375.939C374.615 242.639 373.244 243.616 371.825 244.556C362.32 250.975 351.564 255.548 339.961 257.858C334.309 259.013 328.477 259.608 322.491 259.608C310.244 259.608 298.677 257.131 288.099 252.678C281.29 249.772 274.91 246.045 269.079 241.639H269.031C261.363 235.78 254.685 228.719 249.248 220.729C242.093 210.083 237.168 197.889 235.2 184.671C234.556 180.349 234.174 175.943 234.174 171.453C234.174 159.224 236.655 147.673 241.115 137.111C247.793 121.333 259.062 107.817 273.157 98.3144L273.145 98.3383Z" fill="url(#paint5_linear_1_55)"/>
<defs>
<linearGradient id="paint0_linear_1_55" x1="600.94" y1="468.665" x2="356.702" y2="424.328" gradientUnits="userSpaceOnUse">
<stop stop-color="#0CABC3"/>
<stop offset="1" stop-color="#0EBBBF"/>
</linearGradient>
<linearGradient id="paint1_linear_1_55" x1="381.007" y1="637.401" x2="264.826" y2="445.869" gradientUnits="userSpaceOnUse">
<stop stop-color="#0588D6"/>
<stop offset="1" stop-color="#2968C8"/>
</linearGradient>
<linearGradient id="paint2_linear_1_55" x1="101.39" y1="553.89" x2="220.543" y2="353.413" gradientUnits="userSpaceOnUse">
<stop stop-color="#5552C5"/>
<stop offset="1" stop-color="#4053C2"/>
</linearGradient>
<linearGradient id="paint3_linear_1_55" x1="152.25" y1="138.909" x2="152.25" y2="379.295" gradientUnits="userSpaceOnUse">
<stop stop-color="#0390D9"/>
<stop offset="1" stop-color="#4753C3"/>
</linearGradient>
<linearGradient id="paint4_linear_1_55" x1="456.993" y1="157.104" x2="520.899" y2="363.414" gradientUnits="userSpaceOnUse">
<stop stop-color="#08A2C7"/>
<stop offset="1" stop-color="#11BDBF"/>
</linearGradient>
<linearGradient id="paint5_linear_1_55" x1="263.224" y1="85.1561" x2="447.583" y2="354.463" gradientUnits="userSpaceOnUse">
<stop stop-color="#009EDB"/>
<stop offset="0.34" stop-color="#01A0D8"/>
<stop offset="0.52" stop-color="#05A8D1"/>
<stop offset="0.66" stop-color="#0CB5C4"/>
<stop offset="0.71" stop-color="#10BCBE"/>
</linearGradient>
</defs>
</svg>
